<svg width="487" height="111" viewBox="0 0 487 114" fill="none" xmlns="http://www.w3.org/2000/svg">
<path d="M478.293 113.207C478.683 113.598 479.317 113.598 479.707 113.207L486.071 106.843C486.462 106.453 486.462 105.819 486.071 105.429C485.681 105.038 485.047 105.038 484.657 105.429L479 111.086L473.343 105.429C472.953 105.038 472.319 105.038 471.929 105.429C471.538 105.819 471.538 106.453 471.929 106.843L478.293 113.207ZM2 1.5C2 0.947715 1.55228 0.5 1 0.5C0.447715 0.5 0 0.947715 0 1.5H2ZM0 5.4375C0 5.98978 0.447715 6.4375 1 6.4375C1.55228 6.4375 2 5.98978 2 5.4375H0ZM2 13.3125C2 12.7602 1.55228 12.3125 1 12.3125C0.447715 12.3125 0 12.7602 0 13.3125H2ZM0 21.1875C0 21.7398 0.447715 22.1875 1 22.1875C1.55228 22.1875 2 21.7398 2 21.1875H0ZM2 29.0625C2 28.5102 1.55228 28.0625 1 28.0625C0.447715 28.0625 0 28.5102 0 29.0625H2ZM0.211256 36.264C0.282691 36.8116 0.784556 37.1977 1.3322 37.1262C1.87985 37.0548 2.26589 36.5529 2.19445 36.0053L0.211256 36.264ZM3.74486 41.8039C3.53331 41.2937 2.94824 41.0516 2.43808 41.2632C1.92792 41.4747 1.68585 42.0598 1.89741 42.57L3.74486 41.8039ZM5.1655 48.2201C5.50202 48.6581 6.12983 48.7403 6.56775 48.4037C7.00566 48.0672 7.08786 47.4394 6.75134 47.0015L5.1655 48.2201ZM10.9985 51.2487C10.5606 50.9121 9.93279 50.9943 9.59627 51.4323C9.25975 51.8702 9.34195 52.498 9.77986 52.8345L10.9985 51.2487ZM15.43 56.1026C15.9402 56.3141 16.5253 56.0721 16.7368 55.5619C16.9484 55.0518 16.7063 54.4667 16.1962 54.2551L15.43 56.1026ZM21.9947 55.8055C21.4471 55.7341 20.9452 56.1202 20.8738 56.6678C20.8024 57.2154 21.1884 57.7173 21.736 57.7887L21.9947 55.8055ZM28.4678 58C29.02 58 29.4678 57.5523 29.4678 57C29.4678 56.4477 29.02 56 28.4678 56V58ZM35.4032 56C34.851 56 34.4032 56.4477 34.4032 57C34.4032 57.5523 34.851 58 35.4032 58V56ZM42.3387 58C42.891 58 43.3387 57.5523 43.3387 57C43.3387 56.4477 42.891 56 42.3387 56V58ZM49.2742 56C48.7219 56 48.2742 56.4477 48.2742 57C48.2742 57.5523 48.7219 58 49.2742 58V56ZM56.2097 58C56.762 58 57.2097 57.5523 57.2097 57C57.2097 56.4477 56.762 56 56.2097 56V58ZM63.1452 56C62.5929 56 62.1452 56.4477 62.1452 57C62.1452 57.5523 62.5929 58 63.1452 58V56ZM70.0807 58C70.6329 58 71.0807 57.5523 71.0807 57C71.0807 56.4477 70.6329 56 70.0807 56V58ZM77.0161 56C76.4639 56 76.0161 56.4477 76.0161 57C76.0161 57.5523 76.4639 58 77.0161 58V56ZM83.9516 58C84.5039 58 84.9516 57.5523 84.9516 57C84.9516 56.4477 84.5039 56 83.9516 56V58ZM90.8871 56C90.3348 56 89.8871 56.4477 89.8871 57C89.8871 57.5523 90.3348 58 90.8871 58V56ZM97.8226 58C98.3749 58 98.8226 57.5523 98.8226 57C98.8226 56.4477 98.3749 56 97.8226 56V58ZM104.758 56C104.206 56 103.758 56.4477 103.758 57C103.758 57.5523 104.206 58 104.758 58V56ZM111.694 58C112.246 58 112.694 57.5523 112.694 57C112.694 56.4477 112.246 56 111.694 56V58ZM118.629 56C118.077 56 117.629 56.4477 117.629 57C117.629 57.5523 118.077 58 118.629 58V56ZM125.565 58C126.117 58 126.565 57.5523 126.565 57C126.565 56.4477 126.117 56 125.565 56V58ZM132.5 56C131.948 56 131.5 56.4477 131.5 57C131.5 57.5523 131.948 58 132.5 58V56ZM139.436 58C139.988 58 140.436 57.5523 140.436 57C140.436 56.4477 139.988 56 139.436 56V58ZM146.371 56C145.819 56 145.371 56.4477 145.371 57C145.371 57.5523 145.819 58 146.371 58V56ZM153.306 58C153.859 58 154.306 57.5523 154.306 57C154.306 56.4477 153.859 56 153.306 56V58ZM160.242 56C159.69 56 159.242 56.4477 159.242 57C159.242 57.5523 159.69 58 160.242 58V56ZM167.177 58C167.73 58 168.177 57.5523 168.177 57C168.177 56.4477 167.73 56 167.177 56V58ZM174.113 56C173.561 56 173.113 56.4477 173.113 57C173.113 57.5523 173.561 58 174.113 58V56ZM181.048 58C181.601 58 182.048 57.5523 182.048 57C182.048 56.4477 181.601 56 181.048 56V58ZM187.984 56C187.432 56 186.984 56.4477 186.984 57C186.984 57.5523 187.432 58 187.984 58V56ZM194.919 58C195.472 58 195.919 57.5523 195.919 57C195.919 56.4477 195.472 56 194.919 56V58ZM201.855 56C201.303 56 200.855 56.4477 200.855 57C200.855 57.5523 201.303 58 201.855 58V56ZM208.79 58C209.343 58 209.79 57.5523 209.79 57C209.79 56.4477 209.343 56 208.79 56V58ZM215.726 56C215.174 56 214.726 56.4477 214.726 57C214.726 57.5523 215.174 58 215.726 58V56ZM222.661 58C223.214 58 223.661 57.5523 223.661 57C223.661 56.4477 223.214 56 222.661 56V58ZM229.597 56C229.045 56 228.597 56.4477 228.597 57C228.597 57.5523 229.045 58 229.597 58V56ZM236.532 58C237.085 58 237.532 57.5523 237.532 57C237.532 56.4477 237.085 56 236.532 56V58ZM243.468 56C242.916 56 242.468 56.4477 242.468 57C242.468 57.5523 242.916 58 243.468 58V56ZM250.403 58C250.956 58 251.403 57.5523 251.403 57C251.403 56.4477 250.956 56 250.403 56V58ZM257.339 56C256.786 56 256.339 56.4477 256.339 57C256.339 57.5523 256.786 58 257.339 58V56ZM264.274 58C264.827 58 265.274 57.5523 265.274 57C265.274 56.4477 264.827 56 264.274 56V58ZM271.21 56C270.657 56 270.21 56.4477 270.21 57C270.21 57.5523 270.657 58 271.21 58V56ZM278.145 58C278.698 58 279.145 57.5523 279.145 57C279.145 56.4477 278.698 56 278.145 56V58ZM285.081 56C284.528 56 284.081 56.4477 284.081 57C284.081 57.5523 284.528 58 285.081 58V56ZM292.016 58C292.568 58 293.016 57.5523 293.016 57C293.016 56.4477 292.568 56 292.016 56V58ZM298.952 56C298.399 56 297.952 56.4477 297.952 57C297.952 57.5523 298.399 58 298.952 58V56ZM305.887 58C306.439 58 306.887 57.5523 306.887 57C306.887 56.4477 306.439 56 305.887 56V58ZM312.823 56C312.27 56 311.823 56.4477 311.823 57C311.823 57.5523 312.27 58 312.823 58V56ZM319.758 58C320.31 58 320.758 57.5523 320.758 57C320.758 56.4477 320.31 56 319.758 56V58ZM326.694 56C326.141 56 325.694 56.4477 325.694 57C325.694 57.5523 326.141 58 326.694 58V56ZM333.629 58C334.181 58 334.629 57.5523 334.629 57C334.629 56.4477 334.181 56 333.629 56V58ZM340.565 56C340.012 56 339.565 56.4477 339.565 57C339.565 57.5523 340.012 58 340.565 58V56ZM347.5 58C348.052 58 348.5 57.5523 348.5 57C348.5 56.4477 348.052 56 347.5 56V58ZM354.436 56C353.883 56 353.436 56.4477 353.436 57C353.436 57.5523 353.883 58 354.436 58V56ZM361.371 58C361.923 58 362.371 57.5523 362.371 57C362.371 56.4477 361.923 56 361.371 56V58ZM368.307 56C367.754 56 367.307 56.4477 367.307 57C367.307 57.5523 367.754 58 368.307 58V56ZM375.242 58C375.794 58 376.242 57.5523 376.242 57C376.242 56.4477 375.794 56 375.242 56V58ZM382.177 56C381.625 56 381.177 56.4477 381.177 57C381.177 57.5523 381.625 58 382.177 58V56ZM389.113 58C389.665 58 390.113 57.5523 390.113 57C390.113 56.4477 389.665 56 389.113 56V58ZM396.048 56C395.496 56 395.048 56.4477 395.048 57C395.048 57.5523 395.496 58 396.048 58V56ZM402.984 58C403.536 58 403.984 57.5523 403.984 57C403.984 56.4477 403.536 56 402.984 56V58ZM409.919 56C409.367 56 408.919 56.4477 408.919 57C408.919 57.5523 409.367 58 409.919 58V56ZM416.855 58C417.407 58 417.855 57.5523 417.855 57C417.855 56.4477 417.407 56 416.855 56V58ZM423.79 56C423.238 56 422.79 56.4477 422.79 57C422.79 57.5523 423.238 58 423.79 58V56ZM430.726 58C431.278 58 431.726 57.5523 431.726 57C431.726 56.4477 431.278 56 430.726 56V58ZM437.661 56C437.109 56 436.661 56.4477 436.661 57C436.661 57.5523 437.109 58 437.661 58V56ZM444.597 58C445.149 58 445.597 57.5523 445.597 57C445.597 56.4477 445.149 56 444.597 56V58ZM451.532 56C450.98 56 450.532 56.4477 450.532 57C450.532 57.5523 450.98 58 451.532 58V56ZM458.005 58.1945C458.553 58.2659 459.055 57.8798 459.126 57.3322C459.198 56.7846 458.812 56.2827 458.264 56.2113L458.005 58.1945ZM464.57 57.8974C464.06 57.6859 463.475 57.9279 463.263 58.4381C463.052 58.9482 463.294 59.5333 463.804 59.7449L464.57 57.8974ZM469.001 62.7513C469.439 63.0879 470.067 63.0057 470.404 62.5677C470.74 62.1298 470.658 61.502 470.22 61.1655L469.001 62.7513ZM474.835 65.7799C474.498 65.3419 473.87 65.2597 473.432 65.5963C472.994 65.9328 472.912 66.5606 473.249 66.9985L474.835 65.7799ZM476.255 72.1961C476.467 72.7063 477.052 72.9484 477.562 72.7368C478.072 72.5253 478.314 71.9402 478.103 71.43L476.255 72.1961ZM479.789 77.736C479.717 77.1884 479.215 76.8023 478.668 76.8738C478.12 76.9452 477.734 77.4471 477.806 77.9947L479.789 77.736ZM478 84.9375C478 85.4898 478.448 85.9375 479 85.9375C479.552 85.9375 480 85.4898 480 84.9375H478ZM480 92.8125C480 92.2602 479.552 91.8125 479 91.8125C478.448 91.8125 478 92.2602 478 92.8125H480ZM478 100.687C478 101.24 478.448 101.687 479 101.687C479.552 101.687 480 101.24 480 100.687H478ZM480 108.562C480 108.01 479.552 107.562 479 107.562C478.448 107.562 478 108.01 478 108.562H480ZM0 1.5V5.4375H2V1.5H0ZM0 13.3125V21.1875H2V13.3125H0ZM0 29.0625V33H2V29.0625H0ZM0 33C0 34.1058 0.0718527 35.1953 0.211256 36.264L2.19445 36.0053C2.06621 35.0221 2 34.019 2 33H0ZM1.89741 42.57C2.74045 44.6029 3.84376 46.5002 5.1655 48.2201L6.75134 47.0015C5.53488 45.4185 4.52003 43.6732 3.74486 41.8039L1.89741 42.57ZM9.77986 52.8345C11.4998 54.1562 13.3971 55.2595 15.43 56.1026L16.1962 54.2551C14.3269 53.48 12.5815 52.4651 10.9985 51.2487L9.77986 52.8345ZM21.736 57.7887C22.8047 57.9281 23.8942 58 25 58V56C23.981 56 22.9779 55.9338 21.9947 55.8055L21.736 57.7887ZM25 58H28.4678V56H25V58ZM35.4032 58H42.3387V56H35.4032V58ZM49.2742 58H56.2097V56H49.2742V58ZM63.1452 58H70.0807V56H63.1452V58ZM77.0161 58H83.9516V56H77.0161V58ZM90.8871 58H97.8226V56H90.8871V58ZM104.758 58H111.694V56H104.758V58ZM118.629 58H125.565V56H118.629V58ZM132.5 58H139.436V56H132.5V58ZM146.371 58H153.306V56H146.371V58ZM160.242 58H167.177V56H160.242V58ZM174.113 58H181.048V56H174.113V58ZM187.984 58H194.919V56H187.984V58ZM201.855 58H208.79V56H201.855V58ZM215.726 58H222.661V56H215.726V58ZM229.597 58H236.532V56H229.597V58ZM243.468 58H250.403V56H243.468V58ZM257.339 58H264.274V56H257.339V58ZM271.21 58H278.145V56H271.21V58ZM285.081 58H292.016V56H285.081V58ZM298.952 58H305.887V56H298.952V58ZM312.823 58H319.758V56H312.823V58ZM326.694 58H333.629V56H326.694V58ZM340.565 58H347.5V56H340.565V58ZM354.436 58H361.371V56H354.436V58ZM368.307 58H375.242V56H368.307V58ZM382.177 58H389.113V56H382.177V58ZM396.048 58H402.984V56H396.048V58ZM409.919 58H416.855V56H409.919V58ZM423.79 58H430.726V56H423.79V58ZM437.661 58H444.597V56H437.661V58ZM451.532 58H455V56H451.532V58ZM455 58C456.019 58 457.022 58.0662 458.005 58.1945L458.264 56.2113C457.195 56.0719 456.106 56 455 56V58ZM463.804 59.7449C465.673 60.52 467.419 61.5349 469.001 62.7513L470.22 61.1655C468.5 59.8438 466.603 58.7405 464.57 57.8974L463.804 59.7449ZM473.249 66.9985C474.465 68.5815 475.48 70.3268 476.255 72.1961L478.103 71.43C477.26 69.3971 476.156 67.4998 474.835 65.7799L473.249 66.9985ZM477.806 77.9947C477.934 78.9779 478 79.981 478 81H480C480 79.8942 479.928 78.8047 479.789 77.736L477.806 77.9947ZM478 81V84.9375H480V81H478ZM478 92.8125V100.687H480V92.8125H478ZM478 108.562V112.5H480V108.562H478Z" fill="#CFD5DE"/>
</svg>
