<svg width="237" height="48" viewBox="0 0 237 48" fill="none" xmlns="http://www.w3.org/2000/svg">
<path d="M40.1893 0.920898H45.0405L35.3887 36.5531H30.6387L22.8566 13.0637H22.6545L14.8725 36.5531H10.1224L0.0664062 0.920898H4.91753L12.548 28.9389H12.7501L20.5827 5.6984H24.9285L32.761 28.9389H32.9632L40.1893 0.920898Z" fill="#5F6368"/>
<path d="M44.6035 24.3599C44.6035 20.6116 45.7995 17.5095 48.1913 15.0538C50.6169 12.5986 53.6657 11.3711 57.3377 11.3711C61.0098 11.3711 64.0418 12.5986 66.4336 15.0538C68.8592 17.5095 70.072 20.6116 70.072 24.3599C70.072 28.1421 68.8592 31.2442 66.4336 33.6661C64.0411 36.1219 61.0091 37.3494 57.3377 37.3488C53.6664 37.3481 50.6176 36.1195 48.1913 33.663C45.7988 31.2086 44.6028 28.1066 44.6035 24.3569M49.2525 24.3569C49.2525 26.9785 50.0274 29.1019 51.577 30.7269C53.1267 32.3519 55.0469 33.1644 57.3377 33.1644C59.6286 33.1644 61.5488 32.3519 63.0985 30.7269C64.6481 29.1019 65.423 26.9785 65.423 24.3569C65.423 21.7691 64.6481 19.6623 63.0985 18.0366C61.5172 16.3785 59.5969 15.549 57.3377 15.5484C55.0786 15.5477 53.1576 16.3781 51.575 18.0397C50.0246 19.6647 49.2498 21.7714 49.2505 24.3599" fill="#5F6368"/>
<path d="M78.0181 36.5536H73.3691V12.1684H77.816V16.1496H78.0223C78.4939 14.8557 79.4626 13.7524 80.9284 12.8397C82.3942 11.927 83.8342 11.471 85.2484 11.4717C86.5953 11.4717 87.7407 11.6707 88.6847 12.0689L87.2656 16.5C86.6922 16.2685 85.7826 16.1524 84.5368 16.1517C82.785 16.1517 81.2608 16.8484 79.9642 18.2418C78.6675 19.6353 78.0188 21.2603 78.0181 23.1168V36.5536Z" fill="#5F6368"/>
<path d="M112.614 36.5531H107.004L99.2729 25.0572L95.483 28.7399V36.5531H90.834V0.920898H95.483V22.8675L106.196 12.1679H112.159V12.367L102.507 21.8225L112.614 36.354V36.5531Z" fill="#5F6368"/>
<path d="M132.729 29.7855C132.729 31.9095 131.786 33.701 129.899 35.1602C128.013 36.6193 125.637 37.3492 122.774 37.3498C120.281 37.3498 118.091 36.711 116.205 35.4334C114.357 34.2046 112.944 32.4391 112.162 30.3827L116.306 28.6409C116.912 30.1013 117.797 31.2375 118.959 32.0493C120.067 32.845 121.404 33.2719 122.775 33.2681C124.258 33.2681 125.496 32.9529 126.488 32.3225C127.48 31.6921 127.976 30.9457 127.978 30.083C127.978 28.5258 126.765 27.3811 124.339 26.6492L120.095 25.6041C115.279 24.4098 112.87 22.1199 112.87 18.7345C112.87 16.5123 113.788 14.7288 115.624 13.3841C117.46 12.0395 119.81 11.3678 122.673 11.3691C124.863 11.3691 126.843 11.8834 128.611 12.9119C130.379 13.9404 131.617 15.3172 132.324 17.0424L128.181 18.7345C127.706 17.7022 126.898 16.8535 125.882 16.3203C124.791 15.7327 123.563 15.4328 122.319 15.4499C121.168 15.433 120.036 15.744 119.06 16.3457C118.098 16.9429 117.617 17.6728 117.617 18.5354C117.617 19.9288 118.947 20.9241 121.609 21.5213L125.348 22.4669C130.267 23.6613 132.726 26.0988 132.726 29.7794" fill="#5F6368"/>
<path d="M148.871 37.3488C147.052 37.3488 145.393 36.9672 143.894 36.2041C142.395 35.4411 141.241 34.4292 140.432 33.1684H140.226L140.432 36.5525V47.3019H135.783V12.1673H140.23V15.5514H140.436C141.245 14.2914 142.399 13.2795 143.898 12.5157C145.398 11.752 147.057 11.3704 148.875 11.3711C152.142 11.3711 154.905 12.6318 157.163 15.1533C159.487 17.7086 160.649 20.7775 160.649 24.3599C160.649 27.9769 159.487 31.0458 157.163 33.5666C154.905 36.088 152.143 37.3488 148.875 37.3488M148.117 33.1684C150.341 33.1684 152.21 32.339 153.726 30.6802C155.239 29.0552 155.995 26.9484 155.995 24.3599C155.995 21.806 155.239 19.6992 153.726 18.0397C152.214 16.3802 150.344 15.5507 148.117 15.5514C145.86 15.5514 143.974 16.3808 142.458 18.0397C140.975 19.6992 140.234 21.806 140.234 24.3599C140.234 26.9477 140.975 29.0711 142.458 30.7299C143.97 32.3549 145.857 33.1674 148.117 33.1674" fill="#5F6368"/>
<path d="M173.381 11.3711C176.818 11.3711 179.53 12.275 181.516 14.0829C183.503 15.8907 184.496 18.3708 184.498 21.5233V36.5546H180.051V33.1685H179.845C177.924 35.9554 175.364 37.3488 172.164 37.3488C169.435 37.3488 167.152 36.5525 165.316 34.96C163.48 33.3675 162.562 31.3769 162.563 28.9882C162.563 26.4674 163.531 24.4602 165.468 22.9665C167.404 21.4729 169.99 20.7264 173.225 20.7271C175.987 20.7271 178.261 21.2247 180.047 22.22V21.1709C180.047 19.5784 179.407 18.2263 178.127 17.1145C176.894 16.0211 175.288 15.4259 173.629 15.4479C171.034 15.4479 168.979 16.5261 167.464 18.6826L163.371 16.1436C165.627 12.9613 168.962 11.3701 173.374 11.3701M167.367 29.0928C167.367 30.2871 167.881 31.2825 168.908 32.0787C169.935 32.875 171.138 33.2731 172.517 33.2731C174.471 33.2731 176.214 32.5598 177.747 31.1332C179.28 29.7065 180.047 28.0311 180.047 26.1068C178.598 24.9795 176.576 24.4155 173.983 24.4148C172.096 24.4148 170.521 24.8627 169.258 25.7585C167.995 26.6543 167.364 27.7657 167.367 29.0928Z" fill="#5F6368"/>
<path d="M200.262 37.3488C196.589 37.3488 193.54 36.1212 191.115 33.6661C188.723 31.1453 187.527 28.0433 187.527 24.3599C187.527 20.6116 188.723 17.5095 191.115 15.0538C193.541 12.5986 196.59 11.3711 200.262 11.3711C202.788 11.3711 204.995 11.993 206.881 13.2368C208.768 14.4806 210.183 16.1977 211.126 18.388L206.885 20.1298C205.572 17.0776 203.264 15.5514 199.963 15.5514C197.84 15.5514 196.004 16.3978 194.454 18.0905C192.938 19.7832 192.18 21.8733 192.18 24.3609C192.18 26.8485 192.938 28.9387 194.454 30.6314C196.003 32.3241 197.839 33.1705 199.963 33.1705C203.365 33.1705 205.757 31.6443 207.138 28.592L211.282 30.3338C210.372 32.5235 208.949 34.2403 207.011 35.4841C205.074 36.7279 202.825 37.3501 200.266 37.3508" fill="#5F6368"/>
<path d="M225.278 37.3488C221.64 37.3488 218.642 36.1212 216.283 33.6661C213.925 31.211 212.746 28.1089 212.746 24.3599C212.746 20.6448 213.891 17.5508 216.182 15.0781C218.473 12.6054 221.404 11.3697 224.975 11.3711C228.646 11.3711 231.568 12.5404 233.741 14.8791C235.913 17.2177 236.999 20.4941 236.998 24.7083L236.947 25.2059H217.496C217.565 27.5947 218.373 29.519 219.922 30.9788C221.47 32.4385 223.323 33.1684 225.48 33.1684C228.444 33.1684 230.769 31.7086 232.454 28.7891L236.598 30.7797C235.54 32.78 233.939 34.4513 231.973 35.607C230.002 36.7675 227.77 37.3481 225.278 37.3488ZM217.853 21.4238H232.047C231.91 19.731 231.211 18.3291 229.95 17.218C228.689 16.107 226.996 15.5514 224.872 15.5514C223.119 15.5514 221.612 16.0822 220.349 17.1439C219.086 18.2056 218.252 19.6322 217.848 21.4238" fill="#5F6368"/>
</svg>
